<?xml version="1.0" encoding="iso-8859-1"?>
<!-- Generator: Adobe Illustrator 19.0.0, SVG Export Plug-In . SVG Version: 6.00 Build 0)  -->
<svg version="1.1" id="Capa_1" xmlns="http://www.w3.org/2000/svg" xmlns:xlink="http://www.w3.org/1999/xlink" x="0px" y="0px"
	 viewBox="0 0 512 512" style="enable-background:new 0 0 512 512;" xml:space="preserve">
<path style="fill:#DDDD3B;" d="M504.029,481.693L275.348,98.17c-1.175-1.97-0.862-4.487,0.761-6.109l35.186-35.186
	c5.723-5.723,6.251-15.047,0.803-21.034c-5.817-6.392-15.72-6.568-21.761-0.526l-15.727,15.727
	c-1.894,1.894-5.132,0.552-5.132-2.126V15.459c0-8.095-6.221-15.06-14.306-15.441c-8.633-0.407-15.76,6.472-15.76,15.015v33.881
	c0,2.679-3.238,4.02-5.132,2.126l-15.727-15.727c-6.041-6.041-15.945-5.866-21.761,0.526c-5.448,5.987-4.921,15.31,0.803,21.034
	l35.186,35.186c1.623,1.623,1.935,4.139,0.761,6.109L4.859,481.692c-4.591,7.698-3.59,17.795,3.064,24.464
	C11.755,509.998,17.06,512,22.487,512c44.758,0,419.157,0,463.914,0c5.427,0,10.731-2.002,14.564-5.845
	C507.618,499.487,508.619,489.39,504.029,481.693z"/>
<path style="fill:#B4D241;" d="M504.236,501.853c-3.548,6.264-10.232,10.142-17.428,10.142H254.443V0.003
	c8.298,0,15.033,6.725,15.033,15.033v33.879c0,2.679,3.239,4.02,5.133,2.126l15.722-15.73c5.873-5.873,15.393-5.873,21.266,0
	c5.873,5.873,5.873,15.393,0,21.266L276.104,92.06c-1.622,1.623-1.936,4.139-0.761,6.11L504.026,481.69
	C507.714,487.874,507.794,495.6,504.236,501.853z"/>
<polygon style="fill:#FFF04A;" points="335.288,198.695 173.6,198.695 63.649,383.095 445.239,383.095 "/>
<polygon style="fill:#DDDD3B;" points="445.238,383.095 254.444,383.095 254.444,198.695 335.289,198.695 "/>
<path style="fill:#453D83;" d="M254.429,273.442c-54.08,0.012-98.079,44.017-98.079,98.093V512h196.187V371.535
	C352.537,317.448,308.533,273.442,254.429,273.442z"/>
<path style="fill:#2D2755;" d="M352.537,371.54v140.455h-98.093V273.437C308.541,273.447,352.537,317.443,352.537,371.54z"/>
<g>
	<path style="fill:#FFDE55;" d="M57.045,41.002c0,8.649-7.025,15.674-15.684,15.674c-8.649,0-15.674-7.025-15.674-15.674
		c0-8.659,7.025-15.684,15.674-15.684C50.02,25.318,57.045,32.344,57.045,41.002z"/>
	<path style="fill:#FFDE55;" d="M81.047,235.054c0,8.659-7.025,15.684-15.684,15.684c-8.649,0-15.674-7.025-15.674-15.684
		c0-8.659,7.025-15.674,15.674-15.674C74.022,219.38,81.047,226.395,81.047,235.054z"/>
	<path style="fill:#FFDE55;" d="M466.023,235.054c0,8.659-7.015,15.684-15.674,15.684s-15.674-7.025-15.674-15.684
		c0-8.659,7.015-15.674,15.674-15.674S466.023,226.395,466.023,235.054z"/>
	<path style="fill:#FFDE55;" d="M379.826,25.318c0,8.659-7.025,15.684-15.684,15.684c-8.649,0-15.674-7.025-15.674-15.684
		c0-8.649,7.025-15.674,15.674-15.674C372.801,9.644,379.826,16.67,379.826,25.318z"/>
	<circle style="fill:#FFDE55;" cx="118.006" cy="128.981" r="15.674"/>
	<path style="fill:#FFDE55;" d="M484.627,24.673c-13.407-13.408-30.4-21.889-49.141-24.526c-4.674-0.657-9.384,0.918-12.722,4.253
		c-3.337,3.335-4.915,8.046-4.259,12.72c2.494,17.79-3.345,35.263-16.02,47.937c-12.676,12.676-30.15,18.513-47.937,16.02
		c-4.677-0.655-9.384,0.922-12.72,4.26c-3.336,3.338-4.911,8.048-4.253,12.722c2.638,18.741,11.118,35.734,24.526,49.141
		c16.891,16.891,39.077,25.336,61.263,25.336s44.372-8.445,61.263-25.336C518.409,113.42,518.409,58.454,484.627,24.673z"/>
</g>
<g>
</g>
<g>
</g>
<g>
</g>
<g>
</g>
<g>
</g>
<g>
</g>
<g>
</g>
<g>
</g>
<g>
</g>
<g>
</g>
<g>
</g>
<g>
</g>
<g>
</g>
<g>
</g>
<g>
</g>
</svg>
